<?xml version="1.0" encoding="UTF-8"?>
<svg xmlns="http://www.w3.org/2000/svg" xmlns:xlink="http://www.w3.org/1999/xlink" width="100pt" height="100pt" viewBox="0 0 100 100" version="1.1">
<g id="surface1">
<path style=" stroke:none;fill-rule:nonzero;fill:rgb(0%,0%,0%);fill-opacity:1;" d="M 41.992188 0 C 40.914062 0 40.039062 0.875 40.039062 1.953125 L 40.039062 12.984375 C 33.75 13.898438 28.84375 19.160156 28.449219 25.632812 L 20.089844 33.992188 C 17.800781 36.28125 17.800781 39.988281 20.089844 42.28125 L 24.871094 47.058594 C 27.902344 50.09375 32.753906 50.082031 35.777344 47.167969 C 37.003906 46.179688 40.800781 40.636719 46.890625 42.824219 C 45.109375 45.792969 42.75 48.417969 39.984375 50.488281 C 33.484375 55.363281 29.03125 63.160156 27.949219 71.488281 C 24.800781 71.582031 22.265625 74.171875 22.265625 77.34375 L 22.265625 84.941406 C 16.519531 86.636719 12.5 91.902344 12.5 98.046875 C 12.5 99.125 13.375 100 14.453125 100 L 84.765625 100 C 85.84375 100 86.71875 99.125 86.71875 98.046875 C 86.71875 91.902344 82.703125 86.636719 76.953125 84.941406 L 76.953125 77.34375 C 76.953125 74.246094 74.535156 71.699219 71.484375 71.5 C 70.847656 68.414062 71.140625 65.613281 72.039062 62.695312 L 82.429688 62.695312 C 83.285156 62.695312 84.039062 62.140625 84.292969 61.324219 C 86.839844 53.148438 89.257812 43.226562 85.683594 28.925781 C 81.515625 12.242188 65.4375 0 51.902344 0 Z M 43.945312 3.90625 L 47.886719 3.90625 C 50.019531 3.90625 51.757812 5.648438 51.757812 7.789062 L 51.757812 14.980469 C 51.757812 15.933594 52.441406 16.746094 53.378906 16.90625 C 62.441406 18.460938 69.183594 25.417969 70.988281 32.664062 C 73.910156 44.335938 71.667969 50.894531 68.742188 60.148438 C 67.59375 63.78125 66.761719 66.96875 67.507812 71.484375 L 31.894531 71.484375 C 32.953125 64.375 36.789062 57.769531 42.328125 53.617188 C 45.667969 51.109375 48.488281 47.910156 50.566406 44.285156 C 54.503906 45.339844 57.859375 44.105469 60.417969 42.839844 C 61.386719 42.363281 61.785156 41.191406 61.304688 40.222656 C 60.828125 39.257812 59.65625 38.859375 58.691406 39.339844 C 55.605469 40.863281 52.957031 41.394531 49.8125 39.832031 C 46.226562 38.039062 42.523438 37.949219 39.097656 39.5625 C 36.21875 40.921875 34.480469 42.945312 33.125 44.296875 C 31.605469 45.816406 29.152344 45.816406 27.632812 44.296875 L 22.851562 39.515625 C 22.089844 38.753906 22.089844 37.515625 22.851562 36.753906 L 31.757812 27.847656 C 32.125 27.480469 32.332031 26.984375 32.332031 26.464844 C 32.332031 21.105469 36.664062 16.75 41.992188 16.75 C 43.070312 16.75 43.945312 15.875 43.945312 14.792969 Z M 54.742188 4.113281 C 65.980469 5.695312 78.480469 16.222656 81.894531 29.871094 C 85.035156 42.4375 83.289062 51.113281 80.984375 58.789062 L 73.269531 58.789062 C 75.699219 51.117188 77.753906 43.613281 74.78125 31.714844 C 72.726562 23.484375 65.484375 15.710938 55.664062 13.386719 L 55.664062 7.789062 C 55.664062 6.460938 55.328125 5.207031 54.742188 4.113281 Z M 28.125 75.390625 L 71.09375 75.390625 C 72.171875 75.390625 73.046875 76.265625 73.046875 77.34375 L 73.046875 84.375 C 57.421875 84.375 41.796875 84.375 26.171875 84.375 L 26.171875 77.34375 C 26.171875 76.265625 27.046875 75.390625 28.125 75.390625 Z M 26.171875 88.28125 C 41.796875 88.28125 57.421875 88.28125 73.046875 88.28125 C 77.691406 88.28125 81.699219 91.515625 82.621094 96.09375 L 16.597656 96.09375 C 17.515625 91.53125 21.511719 88.28125 26.171875 88.28125 Z M 26.171875 88.28125 "/>
<path style=" stroke:none;fill-rule:nonzero;fill:rgb(0%,0%,0%);fill-opacity:1;" d="M 43.75 26.5625 L 39.84375 26.5625 C 38.765625 26.5625 37.890625 27.4375 37.890625 28.515625 C 37.890625 29.59375 38.765625 30.46875 39.84375 30.46875 L 43.75 30.46875 C 44.828125 30.46875 45.703125 29.59375 45.703125 28.515625 C 45.703125 27.4375 44.828125 26.5625 43.75 26.5625 Z M 43.75 26.5625 "/>
</g>
</svg>
