<?xml version="1.0" encoding="UTF-8"?>
<svg xmlns="http://www.w3.org/2000/svg" xmlns:xlink="http://www.w3.org/1999/xlink" width="100pt" height="100pt" viewBox="0 0 100 100" version="1.1">
<g id="surface1">
<path style=" stroke:none;fill-rule:nonzero;fill:rgb(0%,0%,0%);fill-opacity:1;" d="M 9.054688 22.488281 L 9.054688 81.601562 C 9.054688 82.855469 10.074219 83.875 11.328125 83.875 L 88.632812 83.875 C 89.886719 83.875 90.90625 82.855469 90.90625 81.601562 L 90.90625 22.488281 C 90.90625 21.230469 89.886719 20.214844 88.632812 20.214844 L 11.328125 20.214844 C 10.074219 20.214844 9.054688 21.230469 9.054688 22.488281 Z M 13.601562 24.761719 L 86.359375 24.761719 L 86.359375 79.328125 L 13.601562 79.328125 Z M 13.601562 24.761719 "/>
<path style=" stroke:none;fill-rule:nonzero;fill:rgb(0%,0%,0%);fill-opacity:1;" d="M 30.882812 36.582031 L 21.789062 29.761719 C 20.785156 29.007812 19.359375 29.210938 18.605469 30.21875 C 17.851562 31.222656 18.054688 32.648438 19.058594 33.398438 L 25.726562 38.402344 L 19.058594 43.402344 C 18.410156 43.890625 18.070312 44.6875 18.167969 45.496094 C 18.265625 46.300781 18.785156 46.996094 19.53125 47.3125 C 20.277344 47.632812 21.136719 47.53125 21.789062 47.042969 L 30.882812 40.222656 C 31.453125 39.792969 31.792969 39.117188 31.792969 38.402344 C 31.792969 37.6875 31.453125 37.011719 30.882812 36.582031 Z M 30.882812 36.582031 "/>
<path style=" stroke:none;fill-rule:nonzero;fill:rgb(0%,0%,0%);fill-opacity:1;" d="M 40.886719 42.949219 L 34.066406 42.949219 C 32.808594 42.949219 31.792969 43.96875 31.792969 45.222656 C 31.792969 46.480469 32.808594 47.496094 34.066406 47.496094 L 40.886719 47.496094 C 42.140625 47.496094 43.160156 46.480469 43.160156 45.222656 C 43.160156 43.96875 42.140625 42.949219 40.886719 42.949219 Z M 40.886719 42.949219 "/>
<path style=" stroke:none;fill-rule:nonzero;fill:rgb(0%,0%,0%);fill-opacity:1;" d="M 63.613281 10.886719 C 63.613281 10.964844 63.617188 11.042969 63.621094 11.121094 L 11.328125 11.121094 C 5.351562 11.125 0.457031 15.742188 0 21.601562 L 0 83.875 C 0.0625 83.875 0.125 83.875 0.1875 83.875 C 1.277344 89.164062 5.929688 92.960938 11.328125 92.96875 L 88.632812 92.96875 C 94.90625 92.960938 99.992188 87.875 100 81.601562 L 100 22.488281 C 99.992188 16.210938 94.90625 11.125 88.632812 11.121094 L 68.167969 11.121094 C 68.140625 11.042969 68.109375 10.964844 68.078125 10.886719 Z M 11.328125 15.667969 L 88.632812 15.667969 C 92.398438 15.667969 95.453125 18.71875 95.453125 22.488281 L 95.453125 81.601562 C 95.453125 85.367188 92.398438 88.421875 88.632812 88.421875 L 11.328125 88.421875 C 7.5625 88.421875 4.507812 85.367188 4.507812 81.601562 L 4.507812 22.488281 C 4.507812 18.71875 7.5625 15.667969 11.328125 15.667969 Z M 11.328125 15.667969 "/>
</g>
</svg>
