<?xml version="1.0" encoding="UTF-8"?>
<svg xmlns="http://www.w3.org/2000/svg" xmlns:xlink="http://www.w3.org/1999/xlink" width="100pt" height="100pt" viewBox="0 0 100 100" version="1.1">
<g id="surface1">
<path style=" stroke:none;fill-rule:nonzero;fill:rgb(0%,0%,0%);fill-opacity:1;" d="M 73.4375 23.375 L 26.296875 23.375 C 24.683594 23.375 23.375 24.683594 23.375 26.296875 L 23.375 73.4375 C 23.375 75.050781 24.683594 76.359375 26.296875 76.359375 L 73.4375 76.359375 C 75.050781 76.359375 76.359375 75.050781 76.359375 73.4375 L 76.359375 26.296875 C 76.359375 24.683594 75.050781 23.375 73.4375 23.375 Z M 70.515625 70.515625 L 29.21875 70.515625 L 29.21875 29.21875 L 70.515625 29.21875 Z M 70.515625 70.515625 "/>
<path style=" stroke:none;fill-rule:nonzero;fill:rgb(0%,0%,0%);fill-opacity:1;" d="M 96.8125 41.101562 C 98.425781 41.101562 99.734375 39.792969 99.734375 38.179688 C 99.734375 36.566406 98.425781 35.257812 96.8125 35.257812 L 88.046875 35.257812 L 88.046875 29.414062 L 96.8125 29.414062 C 98.425781 29.414062 99.734375 28.105469 99.734375 26.492188 C 99.734375 24.878906 98.425781 23.570312 96.8125 23.570312 L 88.046875 23.570312 L 88.046875 18.503906 C 88.046875 14.746094 84.988281 11.6875 81.230469 11.6875 L 76.164062 11.6875 L 76.164062 2.921875 C 76.164062 1.308594 74.855469 0 73.242188 0 C 71.628906 0 70.320312 1.308594 70.320312 2.921875 L 70.320312 11.6875 L 64.476562 11.6875 L 64.476562 2.921875 C 64.476562 1.308594 63.167969 0 61.554688 0 C 59.941406 0 58.632812 1.308594 58.632812 2.921875 L 58.632812 11.6875 L 52.789062 11.6875 L 52.789062 2.921875 C 52.789062 1.308594 51.480469 0 49.867188 0 C 48.253906 0 46.945312 1.308594 46.945312 2.921875 L 46.945312 11.6875 L 41.101562 11.6875 L 41.101562 2.921875 C 41.101562 1.308594 39.792969 0 38.179688 0 C 36.566406 0 35.257812 1.308594 35.257812 2.921875 L 35.257812 11.6875 L 29.414062 11.6875 L 29.414062 2.921875 C 29.414062 1.308594 28.105469 0 26.492188 0 C 24.878906 0 23.570312 1.308594 23.570312 2.921875 L 23.570312 11.6875 L 18.503906 11.6875 C 14.746094 11.6875 11.6875 14.746094 11.6875 18.503906 L 11.6875 23.570312 L 2.921875 23.570312 C 1.308594 23.570312 0 24.878906 0 26.492188 C 0 28.105469 1.308594 29.414062 2.921875 29.414062 L 11.6875 29.414062 L 11.6875 35.257812 L 2.921875 35.257812 C 1.308594 35.257812 0 36.566406 0 38.179688 C 0 39.792969 1.308594 41.101562 2.921875 41.101562 L 11.6875 41.101562 L 11.6875 46.945312 L 2.921875 46.945312 C 1.308594 46.945312 0 48.253906 0 49.867188 C 0 51.480469 1.308594 52.789062 2.921875 52.789062 L 11.6875 52.789062 L 11.6875 58.632812 L 2.921875 58.632812 C 1.308594 58.632812 0 59.941406 0 61.554688 C 0 63.167969 1.308594 64.476562 2.921875 64.476562 L 11.6875 64.476562 L 11.6875 70.320312 L 2.921875 70.320312 C 1.308594 70.320312 0 71.628906 0 73.242188 C 0 74.855469 1.308594 76.164062 2.921875 76.164062 L 11.6875 76.164062 L 11.6875 81.230469 C 11.6875 84.988281 14.746094 88.046875 18.503906 88.046875 L 23.570312 88.046875 L 23.570312 96.8125 C 23.570312 98.425781 24.878906 99.734375 26.492188 99.734375 C 28.105469 99.734375 29.414062 98.425781 29.414062 96.8125 L 29.414062 88.046875 L 35.257812 88.046875 L 35.257812 96.8125 C 35.257812 98.425781 36.566406 99.734375 38.179688 99.734375 C 39.792969 99.734375 41.101562 98.425781 41.101562 96.8125 L 41.101562 88.046875 L 46.945312 88.046875 L 46.945312 96.8125 C 46.945312 98.425781 48.253906 99.734375 49.867188 99.734375 C 51.480469 99.734375 52.789062 98.425781 52.789062 96.8125 L 52.789062 88.046875 L 58.632812 88.046875 L 58.632812 96.8125 C 58.632812 98.425781 59.941406 99.734375 61.554688 99.734375 C 63.167969 99.734375 64.476562 98.425781 64.476562 96.8125 L 64.476562 88.046875 L 70.320312 88.046875 L 70.320312 96.8125 C 70.320312 98.425781 71.628906 99.734375 73.242188 99.734375 C 74.855469 99.734375 76.164062 98.425781 76.164062 96.8125 L 76.164062 88.046875 L 81.230469 88.046875 C 84.988281 88.046875 88.046875 84.988281 88.046875 81.230469 L 88.046875 76.164062 L 96.8125 76.164062 C 98.425781 76.164062 99.734375 74.855469 99.734375 73.242188 C 99.734375 71.628906 98.425781 70.320312 96.8125 70.320312 L 88.046875 70.320312 L 88.046875 64.476562 L 96.8125 64.476562 C 98.425781 64.476562 99.734375 63.167969 99.734375 61.554688 C 99.734375 59.941406 98.425781 58.632812 96.8125 58.632812 L 88.046875 58.632812 L 88.046875 52.789062 L 96.8125 52.789062 C 98.425781 52.789062 99.734375 51.480469 99.734375 49.867188 C 99.734375 48.253906 98.425781 46.945312 96.8125 46.945312 L 88.046875 46.945312 L 88.046875 41.101562 Z M 82.203125 81.230469 C 82.203125 81.765625 81.765625 82.203125 81.230469 82.203125 L 18.503906 82.203125 C 17.96875 82.203125 17.53125 81.765625 17.53125 81.230469 L 17.53125 18.503906 C 17.53125 17.96875 17.96875 17.53125 18.503906 17.53125 L 81.230469 17.53125 C 81.765625 17.53125 82.203125 17.96875 82.203125 18.503906 Z M 82.203125 81.230469 "/>
</g>
</svg>
