<?xml version="1.0" encoding="UTF-8" standalone="no"?>
<svg
   xmlns:dc="http://purl.org/dc/elements/1.1/"
   xmlns:cc="http://creativecommons.org/ns#"
   xmlns:rdf="http://www.w3.org/1999/02/22-rdf-syntax-ns#"
   xmlns:svg="http://www.w3.org/2000/svg"
   xmlns="http://www.w3.org/2000/svg"
   xmlns:sodipodi="http://sodipodi.sourceforge.net/DTD/sodipodi-0.dtd"
   xmlns:inkscape="http://www.inkscape.org/namespaces/inkscape"
   width="100pt"
   height="100pt"
   viewBox="0 0 100 100"
   version="1.1"
   id="svg5"
   sodipodi:docname="plugin.svg"
   inkscape:version="0.92.4 5da689c313, 2019-01-14">
  <metadata
     id="metadata11">
    <rdf:RDF>
      <cc:Work
         rdf:about="">
        <dc:format>image/svg+xml</dc:format>
        <dc:type
           rdf:resource="http://purl.org/dc/dcmitype/StillImage" />
      </cc:Work>
    </rdf:RDF>
  </metadata>
  <defs
     id="defs9" />
  <sodipodi:namedview
     pagecolor="#ffffff"
     bordercolor="#666666"
     borderopacity="1"
     objecttolerance="10"
     gridtolerance="10"
     guidetolerance="10"
     inkscape:pageopacity="0"
     inkscape:pageshadow="2"
     inkscape:window-width="1861"
     inkscape:window-height="1008"
     id="namedview7"
     showgrid="false"
     inkscape:zoom="1.77"
     inkscape:cx="-44.632768"
     inkscape:cy="66.666667"
     inkscape:window-x="1965"
     inkscape:window-y="1134"
     inkscape:window-maximized="0"
     inkscape:current-layer="svg5" />
  <g
     id="surface1"
     style="fill:#b380ff;fill-opacity:1">
    <path
       style="stroke:none;fill-rule:nonzero;fill:#b380ff;fill-opacity:1"
       d="M 77.027344 61.621094 C 77.160156 67.332031 82.203125 71.980469 87.914062 71.847656 C 90.4375 71.714844 92.828125 70.785156 94.554688 69.191406 C 95.351562 68.394531 96.546875 67.996094 97.742188 67.996094 L 99.867188 67.996094 L 99.867188 96.414062 C 99.867188 98.273438 98.40625 99.734375 96.546875 99.734375 L 67.996094 99.734375 L 67.996094 97.609375 C 67.996094 96.414062 68.527344 95.21875 69.324219 94.289062 C 70.917969 92.429688 71.980469 90.039062 71.980469 87.382812 C 71.980469 86.984375 71.980469 86.71875 71.980469 86.320312 C 71.980469 86.1875 71.980469 86.1875 71.980469 86.054688 C 71.980469 85.789062 71.980469 85.523438 71.847656 85.257812 C 71.847656 85.125 71.847656 84.992188 71.714844 84.859375 C 71.714844 84.59375 71.582031 84.460938 71.582031 84.195312 C 71.582031 84.0625 71.449219 83.929688 71.449219 83.796875 C 71.316406 83.53125 71.316406 83.398438 71.183594 83.132812 C 71.183594 83.003906 71.050781 82.867188 71.050781 82.738281 C 70.917969 82.605469 70.917969 82.339844 70.785156 82.203125 C 70.785156 82.074219 70.652344 81.9375 70.652344 81.808594 C 70.519531 81.675781 70.386719 81.410156 70.253906 81.277344 C 70.121094 81.144531 70.121094 81.011719 69.988281 81.011719 C 69.855469 80.878906 69.722656 80.613281 69.589844 80.476562 C 69.457031 80.347656 69.457031 80.347656 69.324219 80.210938 C 69.191406 80.082031 69.058594 79.945312 68.925781 79.816406 C 68.792969 79.683594 68.660156 79.683594 68.660156 79.550781 C 68.527344 79.417969 68.394531 79.285156 68.128906 79.152344 C 67.996094 79.019531 67.863281 79.019531 67.863281 78.886719 C 67.730469 78.753906 67.464844 78.621094 67.332031 78.488281 C 67.199219 78.355469 67.066406 78.355469 66.933594 78.222656 C 66.800781 78.089844 66.535156 77.957031 66.402344 77.957031 C 66.269531 77.957031 66.136719 77.824219 66.003906 77.824219 C 65.871094 77.691406 65.605469 77.691406 65.472656 77.558594 C 65.339844 77.558594 65.207031 77.425781 65.074219 77.425781 C 64.941406 77.425781 64.675781 77.292969 64.542969 77.160156 C 64.410156 77.160156 64.277344 77.160156 64.144531 77.027344 C 64.011719 77.027344 63.746094 76.894531 63.613281 76.894531 C 63.480469 76.894531 63.347656 76.894531 63.214844 76.894531 C 63.082031 76.894531 62.816406 76.894531 62.550781 76.894531 C 62.417969 76.894531 62.285156 76.894531 62.019531 76.894531 C 61.886719 76.894531 61.621094 76.894531 61.488281 76.894531 L 60.824219 76.894531 C 60.691406 76.894531 60.425781 76.894531 60.292969 76.894531 C 60.027344 76.894531 59.894531 77.027344 59.628906 77.027344 C 59.496094 77.027344 59.363281 77.027344 59.230469 77.027344 C 58.964844 77.027344 58.699219 77.160156 58.433594 77.292969 L 58.300781 77.292969 C 58.035156 77.425781 57.636719 77.558594 57.371094 77.691406 C 55.246094 78.621094 53.386719 80.347656 52.324219 82.46875 C 52.324219 82.46875 52.324219 82.46875 52.324219 82.601562 C 52.191406 82.867188 52.058594 83.132812 51.925781 83.398438 C 51.925781 83.398438 51.925781 83.53125 51.792969 83.664062 C 51.660156 83.929688 51.660156 84.0625 51.527344 84.328125 C 51.527344 84.460938 51.394531 84.59375 51.394531 84.726562 C 51.394531 84.859375 51.261719 85.125 51.261719 85.257812 C 51.261719 85.390625 51.128906 85.523438 51.128906 85.65625 C 51.128906 85.789062 51.128906 86.054688 51.128906 86.1875 C 51.128906 86.320312 51.128906 86.585938 51.128906 86.71875 C 51.128906 86.851562 51.128906 87.117188 51.128906 87.25 C 51.128906 87.382812 51.128906 87.648438 51.128906 87.78125 L 51.128906 87.914062 C 51.128906 88.046875 51.128906 88.179688 51.128906 88.3125 L 51.128906 88.84375 C 51.128906 88.976562 51.128906 89.109375 51.128906 89.242188 C 51.128906 89.375 51.128906 89.640625 51.261719 89.773438 C 51.261719 89.90625 51.261719 90.039062 51.394531 90.171875 C 51.394531 90.304688 51.527344 90.570312 51.527344 90.703125 C 51.527344 90.835938 51.660156 90.96875 51.660156 91.101562 C 51.660156 91.234375 51.792969 91.367188 51.792969 91.5 C 51.792969 91.632812 51.925781 91.765625 51.925781 91.898438 C 51.925781 92.03125 52.058594 92.164062 52.058594 92.296875 C 52.058594 92.429688 52.191406 92.5625 52.324219 92.695312 C 52.457031 92.828125 52.457031 92.960938 52.589844 93.09375 C 52.722656 93.226562 52.722656 93.359375 52.855469 93.492188 C 52.988281 93.625 52.988281 93.757812 53.121094 93.890625 C 53.253906 94.023438 53.253906 94.15625 53.386719 94.289062 C 53.519531 94.421875 53.519531 94.421875 53.652344 94.554688 C 54.449219 95.484375 54.980469 96.679688 54.980469 97.875 L 54.980469 100 L 26.296875 100 C 24.4375 100 22.976562 98.539062 22.976562 96.679688 L 22.976562 67.863281 L 20.851562 67.863281 C 19.65625 67.863281 18.59375 68.261719 17.664062 69.058594 C 15.9375 70.652344 13.546875 71.714844 11.023438 71.714844 C 5.316406 71.980469 0.269531 67.332031 0.136719 61.488281 C 0.00390625 55.511719 4.785156 50.730469 10.625 50.730469 C 13.28125 50.730469 15.671875 51.660156 17.53125 53.386719 C 18.460938 54.183594 19.523438 54.714844 20.851562 54.714844 L 22.976562 54.714844 L 22.976562 26.164062 C 22.976562 24.304688 24.4375 22.84375 26.296875 22.84375 L 54.847656 22.84375 L 54.847656 20.71875 C 54.847656 19.523438 54.449219 18.460938 53.652344 17.53125 C 52.058594 15.804688 50.996094 13.414062 50.996094 10.890625 C 50.730469 5.183594 55.378906 0.136719 61.089844 0.00390625 C 67.066406 -0.128906 71.847656 4.652344 71.847656 10.492188 C 71.847656 13.148438 70.917969 15.539062 69.191406 17.398438 C 68.394531 18.328125 67.863281 19.390625 67.863281 20.71875 L 67.863281 22.84375 L 96.546875 22.84375 C 98.40625 22.84375 99.867188 24.304688 99.867188 26.164062 L 99.867188 54.714844 L 97.742188 54.714844 C 96.546875 54.714844 95.351562 54.183594 94.421875 53.386719 C 92.5625 51.792969 90.171875 50.730469 87.515625 50.730469 C 81.671875 50.863281 76.894531 55.644531 77.027344 61.621094 Z M 77.027344 61.621094 "
       id="path2" />
  </g>
</svg>
