<svg xmlns="http://www.w3.org/2000/svg" width="{{ .width }}" height="{{ .height }}" fill="currentColor" viewBox="0 0 24 24">
  <path fill="none" d="M0 0h24v24H0V0z"/>
  <path d="M17.142 4.757a2.983 2.983 0 00-2.992 2.992c0 1.098.607 2.057 1.496 2.571v.42c0 1.497-1.496 2.993-2.992 2.993-1.24 0-2.22.257-2.992.678V7.328a2.977 2.977 0 001.496-2.571 2.983 2.983 0 00-2.992-2.992 2.983 2.983 0 00-2.992 2.992c0 1.098.607 2.057 1.496 2.571v9.794a2.977 2.977 0 00-1.496 2.572 2.983 2.983 0 002.992 2.992 2.983 2.983 0 002.992-2.992c0-.795-.304-1.496-.795-2.034.444-.538 1.145-.958 2.29-.958 2.993 0 5.985-2.993 5.985-5.985v-.42a2.977 2.977 0 001.496-2.572 2.983 2.983 0 00-2.992-2.992zM8.166 3.26c.818 0 1.496.678 1.496 1.496s-.678 1.496-1.496 1.496A1.506 1.506 0 016.67 4.757c0-.818.678-1.496 1.496-1.496zm0 17.952a1.506 1.506 0 01-1.496-1.496c0-.818.678-1.496 1.496-1.496s1.496.678 1.496 1.496-.678 1.496-1.496 1.496zm8.976-11.968a1.506 1.506 0 01-1.496-1.496c0-.818.678-1.496 1.496-1.496s1.496.678 1.496 1.496-.678 1.496-1.496 1.496z"/>
</svg>
