<svg xmlns="http://www.w3.org/2000/svg" width="{{ .width }}" height="{{ .height }}" fill="currentColor" viewBox="0 0 24 24">
  <path class="the_logo" d="M11.996.394a11.595 11.595 0 00-2.584.308v8.112l5.347-3.087 4.63-2.673A11.595 11.595 0 0016.913 1.5l-4.918 2.84zm-4.05.74a11.595 11.595 0 00-2.583 1.368v5.716L1.944 6.244A11.595 11.595 0 00.911 8.631l1.689.975 5.347 3.087V6.52zm12.52 2.938l-1.697.98-5.347 3.086 5.347 3.087 4.658 2.69a11.595 11.595 0 00.174-1.926 11.595 11.595 0 00-.05-.986L18.59 8.138l3.424-1.976a11.595 11.595 0 00-1.549-2.09zm-19.882 6a11.595 11.595 0 00-.173 1.917 11.595 11.595 0 00.05.996l4.973 2.87-3.426 1.978a11.595 11.595 0 001.552 2.088l1.695-.979 5.347-3.086-5.347-3.087zm15.44 1.231v11.553a11.595 11.595 0 002.584-1.352v-5.725l3.44 1.986a11.595 11.595 0 001.043-2.382l-1.72-.993zm-1.42 3.845l-5.347 3.087-4.643 2.68a11.595 11.595 0 002.471 1.557l4.934-2.848v3.959a11.595 11.595 0 002.584-.309v-1.952z" fill="#b380ff"/>
</svg>
