<svg xmlns="http://www.w3.org/2000/svg" width="{{ .width }}" height="{{ .height }}" fill="currentColor" viewBox="0 0 24 24">
  <g
     transform="matrix(0.04263197,0,0,0.04263197,0.9844802,0.77949016)"
     id="g6">
    <g
       id="g4">
      <path
         inkscape:connector-curvature="0"
         d="M 509.989,463.656 474.84,361.363 C 491.746,327.189 500.687,289.098 500.747,250.77 500.849,184.768 475.312,122.359 428.838,75.043 382.357,27.718 320.418,1.08 254.433,0.033 219.862,-0.522 186.316,5.848 154.676,18.945 124.159,31.578 96.792,49.877 73.336,73.333 49.879,96.789 31.58,124.156 18.948,154.673 5.851,186.313 -0.512,219.876 0.035,254.43 c 1.045,65.985 27.684,127.924 75.009,174.406 47.224,46.383 109.472,71.912 175.332,71.911 0.129,0 0.265,0 0.394,0 38.328,-0.06 76.419,-9.001 110.594,-25.907 l 102.293,35.149 c 3.934,1.352 7.966,2.011 11.954,2.011 9.474,0 18.69,-3.722 25.678,-10.712 9.929,-9.929 13.264,-24.349 8.7,-37.632 z m -30.165,16.168 c -1.007,1.007 -3.163,2.535 -6.304,1.457 L 365.126,444.035 c -1.603,-0.55 -3.27,-0.824 -4.932,-0.824 -2.45,0 -4.889,0.593 -7.098,1.762 -31.327,16.573 -66.727,25.363 -102.374,25.417 C 131.172,470.583 32.28,373.48 30.386,253.949 29.433,193.81 52.309,137.289 94.8,94.798 c 42.491,-42.49 98.995,-65.362 159.151,-64.411 119.53,1.895 216.625,100.738 216.439,220.336 -0.056,35.648 -8.845,71.048 -25.417,102.373 -1.962,3.708 -2.301,8.063 -0.938,12.03 l 37.246,108.394 c 1.079,3.139 -0.449,5.298 -1.457,6.304 z"
         id="path2" />
    </g>
  </g>
  <g
     transform="matrix(0.04263197,0,0,0.04263197,0.9844802,0.77949016)"
     id="g12">
    <g
       id="g10">
      <path
         inkscape:connector-curvature="0"
         d="m 247.91,362.748 c -7.939,0 -15.545,6.981 -15.178,15.178 0.368,8.223 6.669,15.178 15.178,15.178 7.939,0 15.545,-6.981 15.178,-15.178 -0.368,-8.224 -6.669,-15.178 -15.178,-15.178 z"
         id="path8" />
    </g>
  </g>
  <g
     transform="matrix(0.04263197,0,0,0.04263197,0.9844802,0.77949016)"
     id="g18">
    <g
       id="g16">
      <path
         inkscape:connector-curvature="0"
         d="m 247.91,127.674 c -41.639,0 -75.515,33.876 -75.515,75.515 0,8.382 6.796,15.178 15.178,15.178 8.382,0 15.178,-6.796 15.178,-15.178 0,-24.9 20.259,-45.159 45.159,-45.159 24.9,0 45.159,20.259 45.159,45.159 0,24.9 -20.259,45.159 -45.159,45.159 -8.382,0 -15.178,6.796 -15.178,15.178 v 61.905 c 0,8.382 6.796,15.178 15.178,15.178 8.382,0 15.178,-6.795 15.178,-15.179 v -48.259 c 34.389,-7.045 60.337,-37.54 60.337,-73.982 0,-41.639 -33.876,-75.515 -75.515,-75.515 z"
         id="path14" />
    </g>
  </g>
</svg>
