<svg xmlns="http://www.w3.org/2000/svg" width="{{ .width }}" height="{{ .height }}" fill="currentColor" viewBox="0 0 24 24">
  <path
     d="m 21.201118,14.729321 c -0.300834,0 -0.54465,0.243816 -0.54465,0.54465 v 4.835895 c -0.0011,0.902076 -0.731873,1.633098 -1.633949,1.633949 H 3.7401983 C 2.838122,21.742964 2.1073126,21.011942 2.1062488,20.109866 V 5.916845 C 2.1073126,5.0149815 2.838122,4.2839593 3.7401983,4.2828955 h 4.8358946 c 0.3008339,0 0.5446498,-0.2438159 0.5446498,-0.5446498 0,-0.3006211 -0.2438159,-0.5446498 -0.5446498,-0.5446498 H 3.7401983 C 2.2368797,3.1952979 1.0186512,4.4135264 1.0169492,5.916845 v 14.193233 c 0.0017,1.503319 1.2199305,2.721547 2.7232491,2.72325 H 19.022519 c 1.503319,-0.0017 2.721547,-1.219931 2.723249,-2.72325 v -4.836107 c 0,-0.300834 -0.243816,-0.54465 -0.54465,-0.54465 z m 0,0"
     id="path2"
     inkscape:connector-curvature="0"
     style="stroke-width:0.05446498" />
  <path
     d="m 21.530035,1.7921864 c -0.957179,-0.95717944 -2.509005,-0.95717944 -3.466185,0 L 8.346957,11.509079 c -0.066592,0.06659 -0.1146743,0.14914 -0.1397793,0.239773 l -1.2777994,4.613142 c -0.05255,0.189139 8.517e-4,0.39168 0.1395665,0.530608 0.1389282,0.138716 0.3414698,0.192117 0.530608,0.139779 l 4.6131412,-1.278012 c 0.09063,-0.02511 0.173181,-0.07319 0.239773,-0.139779 l 9.716681,-9.7171056 c 0.95569,-0.9578178 0.95569,-2.5083677 0,-3.4661855 z M 9.5336976,11.863102 17.486223,3.9103635 20.050971,6.4751111 12.098232,14.427849 Z m -0.5123109,1.028026 2.0490323,2.049245 -2.8343067,0.785275 z M 21.398979,5.1273155 20.821353,5.7049422 18.256392,3.139982 18.834232,2.5623553 c 0.531671,-0.5316719 1.39375,-0.5316719 1.925422,0 l 0.639325,0.6391125 c 0.530821,0.5323101 0.530821,1.3937504 0,1.9258477 z m 0,0"
     id="path4"
     inkscape:connector-curvature="0"
     style="stroke-width:0.05446498" />
</svg>
