<svg xmlns="http://www.w3.org/2000/svg" width="{{ .width }}" height="{{ .height }}" fill="currentColor" viewBox="0 0 24 24">
  <path
     fill="none"
     d="M0 0h24v24H0V0z"
     id="path2" />
  <path
     inkscape:connector-curvature="0"
     d="m 17.14174,4.7567875 c -1.659637,0 -2.992021,1.3323836 -2.992021,2.9920204 0,1.0986331 0.607753,2.0570144 1.496012,2.5712701 v 0.420753 c 0,1.496012 -1.496012,2.99202 -2.992024,2.99202 -1.238884,0 -2.220643,0.257129 -2.9920249,0.677882 V 7.3280549 C 10.549942,6.8138019 11.157695,5.855418 11.157695,4.7567875 c 0,-1.6596407 -1.3323839,-2.9920244 -2.9920209,-2.9920244 -1.65964,0 -2.992024,1.3323837 -2.992024,2.9920244 0,1.0986305 0.607755,2.0570144 1.496012,2.5712674 v 9.7941981 c -0.888257,0.514253 -1.496012,1.472637 -1.496012,2.571268 0,1.659639 1.332384,2.992023 2.992024,2.992023 1.659637,0 2.9920209,-1.332384 2.9920209,-2.992023 0,-0.794756 -0.303878,-1.496009 -0.794756,-2.033641 0.444127,-0.537627 1.145384,-0.95838 2.290768,-0.95838 2.992024,0 5.984045,-2.992023 5.984045,-5.984043 v -0.420753 c 0.888255,-0.5142567 1.496009,-1.4726369 1.496009,-2.5712714 0,-1.6596368 -1.332382,-2.9920204 -2.992021,-2.9920204 z M 8.1656741,3.2607753 c 0.818131,0 1.496008,0.6778801 1.496008,1.4960122 0,0.8181307 -0.677877,1.4960082 -1.496008,1.4960082 -0.818132,0 -1.496012,-0.6778775 -1.496012,-1.4960082 0,-0.8181321 0.67788,-1.4960122 1.496012,-1.4960122 z m 0,17.9521317 c -0.818132,0 -1.496012,-0.677878 -1.496012,-1.496008 0,-0.818134 0.67788,-1.496013 1.496012,-1.496013 0.818131,0 1.496008,0.677879 1.496008,1.496013 0,0.81813 -0.677877,1.496008 -1.496008,1.496008 z M 17.14174,9.2448187 c -0.818131,0 -1.496009,-0.6778801 -1.496009,-1.4960108 0,-0.8181307 0.677878,-1.4960122 1.496009,-1.4960122 0.81813,0 1.496012,0.6778815 1.496012,1.4960122 0,0.8181307 -0.677882,1.4960108 -1.496012,1.4960108 z"
     id="path2-5"
     style="stroke-width:0.02337518" />
</svg>
